<svg xmlns="http://www.w3.org/2000/svg" viewBox="0 0 172.21 789.15"><defs><style>.cls-1{fill:#fff;}.cls-1,.cls-3,.cls-4{fill-rule:evenodd;}.cls-2{fill:#593f2e;}.cls-3{fill:#f0c444;}.cls-4{fill:#f9e8af;}</style></defs><title>bookshelf</title><g id="Layer_2" data-name="Layer 2"><g id="Home"><path class="cls-1" d="M4.46,4.46h163.3V784.69H4.46V4.46Zm29.75,98.66v71.73H138V103.12Zm0,170.39v71.74H138V273.51Zm0,170.39v71.74H138V443.9Zm0,170.4V686H138V614.3Z"/><path class="cls-2" d="M38.67,681.58h94.87V618.76H38.67v62.82Zm103.79,0h0V759.4H29.76V609.84h112.7v71.74ZM172.21,77.82V789.15H0V68.9H0V0H172.21V77.82Zm-163.29,0V780.24H163.3V77.82H8.92Zm29.75,29.75v62.82h94.87V107.57ZM133.54,239.3v-60H38.67v60ZM29.75,243.76V98.66h112.7v71.73h0v77.82H29.76v-4.45ZM38.67,278v62.82h94.87V278Zm-8.92,67.28v-76.2h112.7v71.74h0v77.82H29.76V345.25Zm8.92,103.11v62.82h94.87V448.36Zm-8.92,67.28V439.45h112.7v71.73h0V589H29.76V515.64ZM163.3,8.92H8.92v60H163.3v-60ZM133.54,349.71H38.67v60h94.87v-60Zm0,170.39H38.67v60h94.87v-60Zm0,170.39H38.67v60h94.87v-60Z"/><polygon class="cls-3" points="56.5 460.23 138 460.23 138 533.85 56.5 533.85 56.5 460.23 56.5 460.23"/><polygon class="cls-3" points="56.5 546.94 138 546.94 138 568.22 56.5 568.22 56.5 546.94 56.5 546.94"/><polygon class="cls-3" points="115 125.07 138 133.38 104.02 227.43 81.02 219.12 115 125.07 115 125.07"/><polygon class="cls-1" points="138 103.12 138 133.38 115 125.07 115 103.12 138 103.12 138 103.12"/><polygon class="cls-3" points="105.84 103.12 81.02 171.81 81.02 219.12 115 125.07 115 103.12 105.84 103.12 105.84 103.12"/><path class="cls-2" d="M119.46,122l14.08,5.09V107.57H119.46V122ZM142,135.27,108.2,228.93a4.44,4.44,0,0,1-5.68,2.68l-22.61-8.17a4.46,4.46,0,0,1-3.34-4.32V171.81h0a4.6,4.6,0,0,1,.26-1.5L101.52,102a4.48,4.48,0,0,1,4.32-3.33H138a4.46,4.46,0,0,1,4.46,4.46v30.26a4.4,4.4,0,0,1-.42,1.89ZM85.48,193.72,95.12,167l15.43-42.7V107.57H109l-23.47,65v21.19Zm32.19-63-31,85.7,14.64,5.29,31-85.7-14.65-5.29Z"/><polygon class="cls-4" points="57.21 295.47 34.21 303.77 68.2 397.83 91.19 389.52 57.21 295.47 57.21 295.47"/><polygon class="cls-1" points="34.21 273.51 34.21 303.77 57.21 295.46 57.21 273.51 34.21 273.51 34.21 273.51"/><polygon class="cls-3" points="66.37 273.51 91.19 342.2 91.19 389.52 57.21 295.46 57.21 273.51 66.37 273.51 66.37 273.51"/><path class="cls-2" d="M54.54,301.15,39.9,306.44l31,85.7,14.65-5.29-31-85.7ZM38.67,278v19.47l14.08-5.08V278Zm-8.92,25.8V273.51a4.46,4.46,0,0,1,4.46-4.46H66.37a4.46,4.46,0,0,1,4.32,3.34L95.37,340.7a4.43,4.43,0,0,1,.26,1.5h0v47.32a4.46,4.46,0,0,1-3.35,4.32L69.69,402A4.44,4.44,0,0,1,64,399.32L30.18,305.67a4.48,4.48,0,0,1-.43-1.9Zm57,39.16L63.26,278H61.67v16.77l15.42,42.69,9.64,26.69V342.93Z"/><polygon class="cls-1" points="56.5 443.9 138 443.9 138 460.23 56.5 460.23 56.5 443.9 56.5 443.9"/><path class="cls-2" d="M56.5,439.45H138a4.46,4.46,0,0,1,4.46,4.45V568.22a4.46,4.46,0,0,1-4.46,4.46H56.5A4.46,4.46,0,0,1,52,568.22V443.9a4.46,4.46,0,0,1,4.46-4.45Zm77,25.24H115.29v99.07h18.25V464.69Zm-27.16,0H88.12v99.07h18.26V464.69Zm-27.17,0H61v99.07H79.21V464.69Zm36.08-16.33v7.41h18.25v-7.41Zm-27.17,0v7.41h18.26v-7.41Zm-8.91,0H61v7.41H79.21v-7.41Z"/><polygon class="cls-4" points="115 636.25 138 644.56 104.02 738.62 81.02 730.31 115 636.25 115 636.25"/><polygon class="cls-1" points="138 614.3 138 644.56 115 636.25 115 614.3 138 614.3 138 614.3"/><polygon class="cls-4" points="89.01 636.25 112 644.56 78.02 738.62 55.03 730.31 89.01 636.25 89.01 636.25"/><polygon class="cls-1" points="112 614.3 112 644.56 89.01 636.25 89.01 614.3 112 614.3 112 614.3"/><polygon class="cls-3" points="79.84 614.3 55.03 682.99 55.03 730.31 89.01 636.25 89.01 614.3 79.84 614.3 79.84 614.3"/><path class="cls-2" d="M119.46,633.15l14.08,5.08V618.76H119.46v14.39ZM83,618.76l-23.46,65v21.19L68.14,681l16.41-45.43h0V618.76Zm-32.1,62.73,24.68-68.31a4.46,4.46,0,0,1,4.31-3.34H112a4.44,4.44,0,0,1,1.51.26,4.32,4.32,0,0,1,1.49-.26h23a4.46,4.46,0,0,1,4.46,4.46v30.26a4.48,4.48,0,0,1-.42,1.9L108.2,740.11a4.45,4.45,0,0,1-5.68,2.69L83.69,736l-1.49,4.12a4.44,4.44,0,0,1-5.67,2.69l-22.62-8.17a4.47,4.47,0,0,1-3.34-4.32V683h0a4.4,4.4,0,0,1,.27-1.5Zm40.83-39.55-31,85.7,14.65,5.29,1.47-4.08v0l29.48-81.58-14.64-5.29ZM116,646.46,86.71,727.64l14.64,5.29,31-85.7-14.65-5.29-1.35,3.73a4.36,4.36,0,0,1-.28.79Zm-8.49-8.23V618.76H93.47v14.39l14.08,5.08Z"/></g></g></svg>