<svg xmlns="http://www.w3.org/2000/svg" viewBox="0 0 1011.82 863.43"><defs><style>.cls-1,.cls-4{fill:#f0c444;}.cls-2{fill:#593f2e;}.cls-3{fill:#f9e8af;}.cls-4{fill-rule:evenodd;}</style></defs><title>door</title><g id="Layer_2" data-name="Layer 2"><g id="Join"><rect class="cls-1" x="33.73" y="337.27" width="674.55" height="67.45" transform="translate(742 0) rotate(90)"/><path class="cls-2" d="M995,708.27H708.27V67.45A67.65,67.65,0,0,0,640.82,0H371a67.65,67.65,0,0,0-67.45,67.45V708.27H16.86a16.87,16.87,0,0,0,0,33.73H995a16.87,16.87,0,1,0,0-33.73Zm-657.68,0V67.45A33.76,33.76,0,0,1,371,33.73H640.82a33.76,33.76,0,0,1,33.73,33.72V708.27Z"/><circle class="cls-2" cx="623.95" cy="421.59" r="16.86"/><rect class="cls-3" x="50.59" y="371" width="623.96" height="16.86" rx="0.5" ry="0.5" transform="translate(742 16.86) rotate(90)"/><polygon class="cls-4" points="81.3 764.52 820.91 764.52 820.91 793.22 81.3 793.22 81.3 764.52 81.3 764.52"/><polygon class="cls-4" points="432.61 799.63 691.48 799.63 691.48 828.32 432.61 828.32 432.61 799.63 432.61 799.63"/><polygon class="cls-4" points="266.2 834.73 746.95 834.73 746.95 863.43 266.2 863.43 266.2 834.73 266.2 834.73"/></g></g></svg>