<svg xmlns="http://www.w3.org/2000/svg" viewBox="0 0 201.94 641.21"><defs><style>.cls-1{fill:#fff;}.cls-1,.cls-2,.cls-3{fill-rule:evenodd;}.cls-2{fill:#f9e8af;}.cls-3{fill:#cec2c2;}.cls-4{fill:#593f2e;}</style></defs><title>lamp</title><g id="Layer_2" data-name="Layer 2"><g id="Home"><path class="cls-1" d="M101,4.46c44.46,0,80.95,27.47,84.7,62.48l11,73.62h0a.69.69,0,0,0,0,.13,63.67,63.67,0,0,1,.77,9.9c0,42.92-43.21,77.7-96.51,77.7S4.46,193.52,4.46,150.6a62.47,62.47,0,0,1,.78-9.9.15.15,0,0,1,0-.07l11-73.69C20,31.93,56.51,4.46,101,4.46Z"/><path class="cls-2" d="M185,72.72l10.85,72.5h0s0,.09,0,.13a62.52,62.52,0,0,1,.77,9.81c0,23.34-12.9,44.25-33.28,58.37l-7.45-83.91c18-12.43,29.34-30.86,29.34-51.43,0-1.77-.08-3.6-.25-5.48Z"/><polygon class="cls-3" points="100.97 283.64 85.22 291.48 31.9 630.27 18.87 636.75 65.35 246.03 100.97 228.3 100.97 283.64 100.97 283.64"/><polygon class="cls-1" points="136.59 246.03 183.07 636.75 170.05 630.27 116.72 291.48 100.97 283.65 100.97 228.3 136.59 246.03 136.59 246.03"/><path class="cls-4" d="M98.88,228.28a4.42,4.42,0,0,1,4.27,0l35.12,17.48a4.43,4.43,0,0,1,1.7,1.5h0l.05.08.09.15,0,0h0l.05.09h0l.05.09h0l0,.1h0l0,.1h0l.09.19h0l0,.09h0l0,.09h0l0,.09,0,.08v0l0,.08v0h0a5.54,5.54,0,0,1,.11.56v.07l46,386.93v.08a4.4,4.4,0,0,1,0,.89h0a5.24,5.24,0,0,1-.08.53h0l0,.21h0l0,.09h0l0,.1h0l0,.09h0l0,.09v0l0,.08,0,.08v0l0,.07-.05.1,0,0a4.32,4.32,0,0,1-1.49,1.7h0l-.08,0-.16.09,0,0h0l-.09,0h0l-.09.05h0l-.09,0h0l-.1,0h0l-.2.08h0l-.1,0h0l-.1,0h0l-.09,0-.07,0h-.05l-.08,0h0a4.37,4.37,0,0,1-1.44.12h0a3.08,3.08,0,0,1-.53-.08h0l-.2-.05h0l-.1,0h0l-.1,0h0l-.09,0h0l-.08,0h0l-.08,0-.08,0h0l-.07,0-.09,0-.05,0-12.9-6.42a4.39,4.39,0,0,1-2.43-3.61l-52.42-333-7.2-3.59V531.55a4.42,4.42,0,0,1-8.83,0V294.1l-7.2,3.59L37,630.71a4.42,4.42,0,0,1-2.44,3.61l-12.9,6.42,0,0-.1,0-.07,0h-.05l-.08,0-.08,0h0l-.09,0h0L21,641h0l-.09,0h0l-.1,0h0l-.21.05h0a3.35,3.35,0,0,1-.54.08h0a4.41,4.41,0,0,1-1.45-.12h0l-.08,0h0l-.08,0-.09,0h0l-.09,0h0l-.09,0h0l-.19-.08h0l-.09,0h0l-.1,0h0l-.09-.05h0l-.08,0h0l0,0-.15-.09-.09,0h0a4.43,4.43,0,0,1-1.5-1.7l0,0,0-.1,0-.07,0,0v0l0-.08,0-.08v0l0-.09h0l0-.09h0l0-.1h0l0-.09h0l-.05-.21h0c0-.18-.06-.36-.08-.53h0a5.27,5.27,0,0,1,0-.89v-.08l46-386.93v-.07a3.66,3.66,0,0,1,.1-.56h0v0l0-.08v0l0-.08,0-.09h0l0-.09h0l0-.09h0l.08-.19h0l0-.1h0l0-.1h0l.05-.09h0l0-.09h0l0,0,.1-.15.05-.08h0a4.5,4.5,0,0,1,1.7-1.5l35.12-17.48ZM177,629.2,132.2,252.6l-26.77-13.32v45l13.16,6.54a4.42,4.42,0,0,1,2.43,3.63l52.42,333L177,629.2ZM69.83,252.6,25,629.2l3.57-1.77L81,294.41a4.4,4.4,0,0,1,2.43-3.62l13.15-6.54v-45L69.83,252.6Z"/><path class="cls-2" d="M76.28,33.37c47,0,85,30.64,85,68.45a56.45,56.45,0,0,1-4.93,23c-14.88,10.3-34.24,16.53-55.4,16.53-46.95,0-85-30.64-85-68.44a56.46,56.46,0,0,1,4.93-23c14.88-10.3,34.24-16.53,55.4-16.53Z"/><path class="cls-4" d="M201.14,140.31c.27,1.73.46,3.39.59,5h0c.14,1.79.21,3.56.21,5.32,0,22.87-11.44,43.52-29.94,58.41-18.23,14.67-43.34,23.75-71,23.75s-52.8-9.08-71-23.75C11.44,194.12,0,173.47,0,150.6c0-1.74.07-3.51.21-5.3h0c.12-1.56.32-3.22.59-5l0-.28,11-73.57C13.73,48.74,23.4,32.85,38.07,21,54.21,8,76.46,0,101,0s46.76,8,62.9,21c14.68,11.81,24.35,27.71,26.24,45.45l11,73.56,0,.26ZM101,56.8a20.78,20.78,0,0,1,13,4.4,14.54,14.54,0,0,1,0,23.4,21.4,21.4,0,0,1-26,0,14.54,14.54,0,0,1,0-23.4,20.8,20.8,0,0,1,13-4.4Zm7.44,11.33a12.69,12.69,0,0,0-14.88,0,5.71,5.71,0,0,0,0,9.54,12.65,12.65,0,0,0,14.88,0,5.71,5.71,0,0,0,0-9.54ZM16.33,96.63,9.64,141.34c0,.13,0,.25-.07.37-.2,1.31-.36,2.74-.48,4.27h0c-.11,1.5-.17,3-.17,4.62,0,20.05,10.16,38.25,26.59,51.48,16.71,13.45,39.85,21.76,65.46,21.76s48.76-8.31,65.46-21.76c16.43-13.23,26.6-31.43,26.6-51.48q0-2.37-.18-4.62v0c-.12-1.51-.28-2.92-.48-4.24,0-.13-.05-.25-.07-.38l-6.69-44.71a72.64,72.64,0,0,1-21.74,28.14c-16.14,13-38.39,21-62.9,21s-46.76-8-62.9-21A72.73,72.73,0,0,1,16.33,96.63ZM158.3,28c-14.62-11.77-34.89-19-57.33-19S58.26,16.2,43.64,28C29.29,39.52,20.41,55.42,20.41,72.9s8.88,33.38,23.23,44.94c14.62,11.77,34.89,19,57.33,19s42.71-7.28,57.33-19c14.35-11.56,23.23-27.45,23.23-44.94S172.65,39.52,158.3,28Z"/></g></g></svg>